<svg xmlns="http://www.w3.org/2000/svg" width="150" height="20">
    <g xmlns="http://www.w3.org/2000/svg" font-family="'DejaVu Sans',Verdana,Geneva,sans-serif" font-size="11">
      <path id="workflow-bg" d="M0,3 C0,1.3431 1.3552,0 3.02702703,0 L106,0 L106,20 L3.02702703,20 C1.3552,20 0,18.6569 0,17 L0,3 Z" fill="rgb(16, 16, 15)" fill-rule="nonzero"/>
      <text fill="#010101" fill-opacity=".3">
        <tspan x="22.1981982" y="15" aria-hidden="true">Dev Build</tspan>
      </text>
      <text fill="#FFFFFF">
        <tspan x="22.1981982" y="14">Dev Build</tspan>
      </text>
    </g>
    <rect x="55%" width="40%" height="100%" fill="rgb(99, 194, 97)"/>

    <text x="75%" y="70%" font-family="DejaVu Sans',Verdana,Geneva,sans-serif" font-size="11" fill="#fff" text-anchor="middle">1.3.0.dev1</text>
    <path xmlns="http://www.w3.org/2000/svg" fill="#959DA5" d="M11 3c-3.868 0-7 3.132-7 7a6.996 6.996 0 0 0 4.786 6.641c.35.062.482-.148.482-.332 0-.166-.01-.718-.01-1.304-1.758.324-2.213-.429-2.353-.822-.079-.202-.42-.823-.717-.99-.245-.13-.595-.454-.01-.463.552-.009.946.508 1.077.718.63 1.058 1.636.76 2.039.577.061-.455.245-.761.446-.936-1.557-.175-3.185-.779-3.185-3.456 0-.762.271-1.392.718-1.882-.07-.175-.315-.892.07-1.855 0 0 .586-.183 1.925.718a6.5 6.5 0 0 1 1.75-.236 6.5 6.5 0 0 1 1.75.236c1.338-.91 1.925-.718 1.925-.718.385.963.14 1.68.07 1.855.446.49.717 1.112.717 1.882 0 2.686-1.636 3.28-3.194 3.456.254.219.473.639.473 1.295 0 .936-.009 1.689-.009 1.925 0 .184.131.402.481.332A7.011 7.011 0 0 0 18 10c0-3.867-3.133-7-7-7z"/>
</svg>